<svg width="28" height="28" viewBox="0 0 28 28" fill="none" xmlns="http://www.w3.org/2000/svg">
<rect x="1" y="0.5" width="27" height="27" rx="13.5" fill="white"/>
<rect x="1" y="0.5" width="27" height="27" rx="13.5" stroke="#DEDEDE"/>
<path d="M20.2298 11.5098C19.7418 10.3921 18.9384 9.44116 17.9179 8.77335C16.8975 8.10553 15.7045 7.74989 14.4849 7.75C11.2359 7.75 8.56331 10.2233 8.25 13.3896" stroke="#2B2B2B" stroke-linecap="round" stroke-linejoin="round"/>
<path d="M17.6169 11.5101H20.374C20.4234 11.5101 20.4723 11.5004 20.5179 11.4815C20.5635 11.4626 20.605 11.4349 20.6399 11.4C20.6748 11.3651 20.7025 11.3236 20.7214 11.278C20.7403 11.2324 20.75 11.1835 20.75 11.1341V8.37695M8.76953 16.5231C9.73704 18.7363 11.9453 20.2829 14.5144 20.2829C17.7641 20.2829 20.4361 17.8096 20.75 14.6432" stroke="#2B2B2B" stroke-linecap="round" stroke-linejoin="round"/>
<path d="M11.3831 16.5215H8.62598C8.52626 16.5215 8.43063 16.5611 8.36012 16.6316C8.28961 16.7021 8.25 16.7977 8.25 16.8975V19.6546" stroke="#2B2B2B" stroke-linecap="round" stroke-linejoin="round"/>
</svg>
