<svg width="25" height="25" viewBox="0 0 25 25" fill="none" xmlns="http://www.w3.org/2000/svg">
<path d="M3.07492 21.7714L3.00961 3.77148L4.29532 3.76682M12.0749 21.7387L12.0096 3.73883L13.2953 3.73417M8.15244 3.75282L8.21774 21.7527ZM17.1524 3.72017L17.2177 21.7201ZM21.0095 3.70618L21.0748 21.7061ZM4.29532 3.76682L4.36063 21.7667L3.07492 21.7714M13.2953 3.73417L13.3606 21.734L12.0749 21.7387" fill="#2B2B2B"/>
<path d="M8.15244 3.75282L8.21774 21.7527M17.1524 3.72017L17.2177 21.7201M21.0095 3.70618L21.0748 21.7061M3.07492 21.7714L3.00961 3.77148L4.29532 3.76682L4.36063 21.7667L3.07492 21.7714ZM12.0749 21.7387L12.0096 3.73883L13.2953 3.73417L13.3606 21.734L12.0749 21.7387Z" stroke="#2B2B2B" stroke-linecap="round" stroke-linejoin="round"/>
</svg>
