<svg width="25" height="25" viewBox="0 0 25 25" fill="none" xmlns="http://www.w3.org/2000/svg">
<path d="M21.0114 4.13186L21.0723 20.9317C21.0729 21.0909 21.0102 21.2437 20.8981 21.3566C20.786 21.4696 20.6336 21.5333 20.4745 21.5339L3.67461 21.5949C3.51548 21.5955 3.36264 21.5328 3.24971 21.4207C3.13678 21.3086 3.07302 21.1562 3.07244 20.9971L3.01148 4.19716C3.01091 4.03804 3.07357 3.88519 3.18568 3.77227C3.29779 3.65934 3.45017 3.59557 3.6093 3.59499L20.4092 3.53404C20.5683 3.53346 20.7212 3.59612 20.8341 3.70823C20.947 3.82034 21.0108 3.97273 21.0114 4.13186Z" fill="white" stroke="#2B2B2B" stroke-linecap="round" stroke-linejoin="round"/>
<path d="M16.0346 10.5501C15.5042 10.552 14.9947 10.3431 14.6183 9.96944C14.2419 9.59573 14.0293 9.08779 14.0274 8.55736C14.0254 8.02693 14.2343 7.51746 14.608 7.14103C14.9817 6.7646 15.4897 6.55204 16.0201 6.55012C16.5505 6.54819 17.06 6.75706 17.4364 7.13077C17.8129 7.50448 18.0254 8.01242 18.0273 8.54285C18.0293 9.07328 17.8204 9.58275 17.4467 9.95918C17.073 10.3356 16.565 10.5482 16.0346 10.5501Z" fill="#FEE9DC" stroke="#F76B15" stroke-linecap="round" stroke-linejoin="round"/>
<path d="M3.05767 16.9268L3.07281 21.0971C3.07381 21.3733 3.29848 21.5963 3.57462 21.5953L20.5745 21.5336C20.8506 21.5326 21.0737 21.308 21.0727 21.0318L21.0648 18.8538C21.0641 18.6577 20.9488 18.4802 20.77 18.3997L10.2468 13.6624C10.1186 13.6047 9.97201 13.6036 9.84296 13.6595L3.35905 16.4662C3.17549 16.5456 3.05695 16.7268 3.05767 16.9268Z" fill="#DEDEDE" stroke="#2B2B2B"/>
</svg>
