<svg width="25" height="25" viewBox="0 0 25 25" fill="none" xmlns="http://www.w3.org/2000/svg">
<path d="M21.012 4.48024L21.0729 21.2801C21.0735 21.4393 21.0109 21.5921 20.8988 21.705C20.7866 21.818 20.6343 21.8817 20.4751 21.8823L3.67524 21.9433C3.51611 21.9438 3.36327 21.8812 3.25034 21.7691C3.13741 21.657 3.07364 21.5046 3.07306 21.3454L3.01211 4.54555C3.01153 4.38642 3.07419 4.23358 3.18631 4.12065C3.29842 4.00772 3.4508 3.94396 3.60993 3.94338L20.4098 3.88243C20.5689 3.88185 20.7218 3.94451 20.8347 4.05662C20.9476 4.16873 21.0114 4.32112 21.012 4.48024Z" fill="white" stroke="#2B2B2B" stroke-linecap="round" stroke-linejoin="round"/>
<path d="M7.03167 9.93114L7.02441 7.93115L17.0243 7.89487L17.0316 9.89486M12.0244 7.91301L12.0607 17.9129M12.0607 17.9129L10.0607 17.9202M12.0607 17.9129L14.0607 17.9057" stroke="#F76B15" stroke-linecap="round" stroke-linejoin="round"/>
</svg>
